<?xml version="1.0" encoding="UTF-8"?>
<svg data-bbox="37 81.8 244 72.5" viewBox="0 0 318 236" xmlns="http://www.w3.org/2000/svg" data-type="color">
    <g>
        <path fill="#00468d" d="M281 81.8v72.5H37.1V81.8H281z" data-color="1"/>
        <path fill="#f6a500" d="M280.9 147v7.2H37V147h243.9z" data-color="2"/>
        <path fill="#ffffff" d="m91.5 122.2 1.2.1-.4 3.3h-1.2l.4-3.4z" data-color="3"/>
        <path fill="#ffffff" d="m73.2 103.9-.4 3.6h-7.2l-.6 4.9h7.2l-.5 3.5h-7.2l-1.4 9.6H59l2.9-21.6h11.3z" data-color="3"/>
        <path d="m75.4 103.9-2.8 21.7s12.3.2 12.3 0 .4-3.4.4-3.4h-8.2l.8-6.2h8.3l.5-3.6h-8.2l.7-4.9h8.2l.5-3.5H75.4z" fill="#ffffff" data-color="3"/>
        <path d="m109.2 103.9-2.8 21.7s12.3.2 12.3 0 .4-3.4.4-3.4h-8.2l.8-6.2h8.3l.5-3.6h-8.2l.7-4.9h8.2l.5-3.5h-12.5z" fill="#ffffff" data-color="3"/>
        <path d="m90.4 103.9-2.8 21.7h4.1l2.4-18.2h3c2.8.1 5.1 2.1 5.6 4.9v.1c1.2 5-2.4 9.3-5.7 9.7-1.6.1-3.2.1-4.7.1l-.4 3.4s5.3.6 8.7-1.1c0 0 6.3-2.2 6.2-11.2 0 0-.4-8.3-10.8-9.3l-5.6-.1z" fill="#ffffff" data-color="3"/>
        <path d="m124.2 104-2.9 21.7h4.2l2.4-18.2s4.1-.7 4.6 1.5c0 0 1.1 4.8-4.6 4.6l-.7 3.2 5.2 9h4.3l-5.3-9.3s4.6-.7 5-6.4c0 0 .1-5.7-6.3-6h-5.9z" fill="#ffffff" data-color="3"/>
        <path fill="#ffffff" d="m127.1 113.4 2.3.1-2.1 3.2h-.6l.4-3.3z" data-color="3"/>
        <path fill="#ffffff" d="m137.3 125.6 14.1-22.6 7.2 22.6h-4.4l-3.9-13.6-8.3 13.6h-4.7z" data-color="3"/>
        <path fill="#ffffff" d="M144.6 121h8.5l-1-3.5h-5.5l-2 3.5z" data-color="3"/>
        <path fill="#ffffff" d="m162.4 104-3 21.6h11.3l.4-3.5h-7l2.3-18.2-4 .1z" data-color="3"/>
        <path fill="#ffffff" d="m195.4 125.6 14.1-22.6 7.2 22.6h-4.3l-4-13.6-8.2 13.6h-4.8z" data-color="3"/>
        <path fill="#ffffff" d="M202.8 121h8.4l-1-3.5h-5.5l-1.9 3.5z" data-color="3"/>
        <path d="m184.1 104-2.8 21.7h4.3l2.5-18.2.1-.3s2.5-.2 3.4 1.1c0 0 1.8 3-2 4.5l-2.4.1-.6 3.2s2.5-.2 3.2.2c0 0 4.1.9 1.6 5.2 0 0-1.1 1.4-5.2.9h-.4l-.2.7-1.2 2.6s1.1 0 3.4.2c0 0 5.5 0 7.4-2.7 0 0 3.6-4.8-1.8-8.6 0 0 3.4-2.5 2.5-5.8 0 0-.4-4.2-6.1-4.6l-5.7-.2z" fill="#ffffff" data-color="3"/>
        <path fill="#ffffff" d="m221.1 103-2.8 22.6h4l2-14.7 14.1 15 3-22h-4.3l-1.7 13.3-14.3-14.2z" data-color="3"/>
        <path fill="#ffffff" d="m244 103.9-2.9 21.7h4.3l2.9-21.7H244z" data-color="3"/>
        <path fill="#ffffff" d="M255.3 103.9h4.7l-13.7 13.4.6-5.5 8.4-7.9z" data-color="3"/>
        <path fill="#ffffff" d="m247.1 116.2 7.5 9.4h4.9l-9.3-12.3-3.1 2.9z" data-color="3"/>
        <path d="M62.5 133.9c-.4-.6-.8-1.3-1.3-2.1l-.7-1.1-.7-1c-.1-.2-.2-.3-.2-.3H61l.3.6c.1.2.2.4.5.8l.4.8c.4.6.8 1.2 1.1 1.7.3-.4.6-1 1-1.6l.5-.9c.2-.3.3-.6.4-.7l.3-.6h1l-.3.3-.7 1-.7 1.1c-.5.7-.9 1.4-1.2 1.9v2.5c0 .3 0 .6.1.9h-1.2c0-.2 0-.6.1-.9s0-1 0-1.9l-.1-.5z" fill="#ffffff" data-color="3"/>
        <path d="M71.8 137.2c1.2 0 2.4-.4 3.2-1.2.8-.8 1.3-1.9 1.2-3 0-1.1-.4-2.1-1.2-2.8-.9-.7-2-1.1-3.2-1.1-1.2-.1-2.4.4-3.2 1.1-.8.8-1.3 1.9-1.2 3 0 1.1.4 2.1 1.2 2.8.8.8 2 1.2 3.2 1.2m0-.5c-.9 0-1.7-.3-2.3-.9-.6-.7-.9-1.6-.9-2.5 0-1 .3-1.9.9-2.6.6-.7 1.4-1 2.3-1 .9 0 1.7.3 2.3.9.6.7.9 1.6.9 2.5 0 1-.3 1.9-.9 2.6-.6.6-1.4 1-2.3 1" fill="#ffffff" data-color="3"/>
        <path d="M85.1 133.6c.1 1-.2 1.9-.9 2.6-.7.6-1.6 1-2.5.9-.9.1-1.8-.2-2.5-.8-.6-.6-.9-1.5-.8-2.4v-4.8h1.2v4.5c-.1.8.2 1.6.6 2.2.5.5 1.2.8 1.9.7.7.1 1.4-.2 1.9-.8.5-.7.7-1.5.6-2.4v-4.2h.8c0 .2-.1.3-.1.5v3.5l-.2.5z" fill="#ffffff" data-color="3"/>
        <path d="M87.6 136.7v.4h1.2v-3.8h.2c.4.5.9 1 1.4 1.6l.7.8.7.8c.1.2.3.4.4.6h1.5l-.3-.3c-.2-.2-.5-.5-.9-1.1l-.6-.8c-.6-.7-1-1.2-1.4-1.8.5-.1 1-.2 1.5-.5.6-.3 1-.9 1-1.6 0-.5-.2-1.1-.7-1.4-.6-.4-1.3-.5-2-.5h-2.8v6.4c0 .6 0 1 .1 1.2m1-6.9h1c.5 0 1 .1 1.4.4.3.2.5.6.5 1 0 .5-.2.9-.7 1.1-.5.3-1.1.5-1.7.4h-.5v-2.9z" fill="#ffffff" data-color="3"/>
        <path d="M98.6 136.7v.4h1.2v-3.6h1c.8.1 1.6-.2 2.3-.6.5-.4.8-1 .8-1.7 0-.6-.2-1.1-.7-1.5-.6-.4-1.4-.5-2.1-.5h-2.6v6.4c0 .5 0 .8.1 1.1m1-6.9h1c.5 0 1 .1 1.5.4.3.3.5.7.5 1.1 0 .5-.2.9-.6 1.2-.5.3-1 .5-1.6.5h-.8v-3.2z" fill="#ffffff" data-color="3"/>
        <path d="M105.2 137.1v-8l.7.1h2.9c.3 0 .5 0 .7-.1v.8c-.2 0-.5-.1-.7-.1h-2.4v2.8h2.1c.3 0 .5 0 .8-.1v.8c-.1 0-.4 0-.8-.1h-2.1v3.2h2.3c.3 0 .5 0 .8-.1v.8c-.3 0-.5-.1-.8-.1h-2.8l-.7.1" fill="#ffffff" data-color="3"/>
        <path d="M111.6 136.7v.4h1.2v-3.8h.4c.4.5.9 1 1.4 1.6l.7.8.7.8c.1.2.3.4.4.6h1.5l-.3-.3c-.2-.2-.5-.5-.9-1.1l-.6-.8c-.6-.7-1-1.2-1.4-1.8.5-.1 1-.2 1.5-.5.6-.3 1-.9 1-1.6 0-.5-.2-1.1-.7-1.4-.6-.4-1.3-.5-2-.5h-2.7v6.4c-.2.6-.2 1-.2 1.2m1-6.9h1c.5 0 1 .1 1.4.4.3.2.5.6.5 1 0 .5-.2.9-.6 1.1-.5.3-1.1.5-1.7.4h-.5v-2.9z" fill="#ffffff" data-color="3"/>
        <path d="M119 135.7v-6.4l.8.1h2.9c.3 0 .5 0 .7-.1v.8c-.2 0-.5-.1-.7-.1h-2.6v2.8h2.3c.2 0 .5 0 .7-.1v.8c-.2 0-.5-.1-.7-.1h-2.3v3.9h-1.2v-1.4" fill="#ffffff" data-color="3"/>
        <path d="M125.1 137.1v-8l.7.1h2.9c.3 0 .5 0 .7-.1v.8c-.2 0-.5-.1-.7-.1h-2.4v2.8h2.1c.3 0 .5 0 .8-.1v.8c-.1 0-.4 0-.8-.1h-2.1v3.2h2.3c.3 0 .5 0 .8-.1v.8c-.3 0-.5-.1-.8-.1h-2.8l-.7.1" fill="#ffffff" data-color="3"/>
        <path d="M137.9 135.9c0 .1-.1.2-.1.3v.3c-.4.2-.8.4-1.3.5-.5.1-1 .2-1.4.1-1.1 0-2.2-.3-3-1.1-.8-.7-1.2-1.8-1.2-2.8 0-1.1.4-2.2 1.2-3 .9-.8 2-1.2 3.2-1.1.5 0 .9 0 1.4.1.4.1.9.2 1.3.4-.1.2-.1.3-.1.5 0 .1-.1.3-.1.5h-.2c-.3-.3-.6-.5-1-.7-.4-.2-.8-.3-1.2-.3-.9 0-1.7.3-2.3 1-.6.7-.9 1.7-.9 2.6 0 .9.3 1.8.9 2.5.6.6 1.4 1 2.2 1 .5 0 .9-.1 1.4-.2.4-.2.7-.4 1.2-.6z" fill="#ffffff" data-color="3"/>
        <path d="M141.4 135.7v-5.8h-1.8c-.3 0-.5 0-.8.1.1-.3.1-.5 0-.8l1.5.1h3.2c.5 0 1 0 1.4-.1-.1.3-.1.5 0 .8-.3 0-.5-.1-.8-.1h-1.6v7.2h-1.2v-.4c0-.2 0-.6.1-1" fill="#ffffff" data-color="3"/>
        <path d="M151.1 133.2h.8c.6 0 1.2.1 1.7.4.4.2.6.7.6 1.1 0 .5-.2 1-.6 1.3-.5.3-1.1.5-1.8.4-.2 0-.5 0-.7-.1v-3.1zm-1.1 3.5v.4h2.1c.8 0 1.7-.2 2.4-.6.6-.3.9-.9.9-1.6 0-.6-.3-1.2-.8-1.6-.4-.3-.9-.4-1.4-.5.4-.1.8-.2 1.1-.4.5-.3.8-.8.8-1.4 0-.5-.2-1-.7-1.3-.7-.3-1.4-.5-2.1-.4H150v7.4m1.1-6.8c.3 0 .6-.1.9-.1.5 0 1 .1 1.4.4.3.2.5.6.5.9 0 .4-.2.8-.6 1.1-.5.3-1 .4-1.5.4h-.7v-2.7z" fill="#ffffff" data-color="3"/>
        <path d="M156.8 136.7c-.1.2-.2.3-.2.4h1c0-.2.1-.4.2-.6.1-.2.2-.4.3-.8.1-.3.4-1 .7-1.5.5-.1 1-.1 1.5-.1s1 0 1.5.1l.7 1.5c.2.4.3.6.3.8.1.2.1.4.2.6h1.3l-.7-1.4c-.4-.7-.7-1.6-1.2-2.5-.7-1.6-1.3-2.9-1.7-3.9h-.3c-.4 1.1-1 2.4-1.8 3.9-.4.9-.8 1.7-1.2 2.5-.4.5-.6.8-.6 1m3.3-5.8 1 2.2.1.3c-.4 0-.8.1-1.2.1-.4 0-.8 0-1.2-.1l.1-.3.6-1.2.6-1" fill="#ffffff" data-color="3"/>
        <path d="M166.5 135.7c0 .5 0 .8.1 1 0 .1 0 .3.1.4h-.8v-7.8h.4c1 1.1 2.3 2.4 3.9 4l1.9 1.9v-6h.8v7.9h-.3c-1-1.1-2.3-2.4-3.9-4l-2-1.9v1.9c-.1 1-.1 1.8-.2 2.6" fill="#ffffff" data-color="3"/>
        <path d="M176.3 135.6v1.4h-1.2v-7.8h1.2v3.6c.5-.4 1.1-1 1.8-1.7s1.4-1.4 1.8-1.9h1.2c-.2.1-.3.2-.4.3l-1.2 1-1 .9-1.2 1.2 1.3 1.5 1.3 1.5c.5.5.8.9 1 1.1l.3.3h-1.6c-.1-.2-.2-.4-.4-.6-.1-.2-.4-.5-.7-.8l-.5-.6c-.7-.8-1.2-1.4-1.7-1.9v2.5" fill="#ffffff" data-color="3"/>
        <path d="M182.7 135.6v-6.4h1.2v7.8h-1.2v-1.4" fill="#ffffff" data-color="3"/>
        <path d="M187 135.7v1.4h-.8v-7.8h.4c1 1.1 2.3 2.4 3.9 4l1.9 1.9v-6h.8v7.9h-.3c-1-1.1-2.3-2.4-3.9-4l-2-2v4.6" fill="#ffffff" data-color="3"/>
        <path d="M199.4 137.2c-1.1 0-2.3-.3-3.1-1.1-.8-.7-1.2-1.7-1.2-2.8 0-1.1.4-2.2 1.2-3 .9-.8 2-1.2 3.2-1.1.6 0 1.1.1 1.7.2.5.1 1 .3 1.5.5-.1.2-.1.3-.1.5s-.1.3-.1.5h-.2c-.3-.4-.7-.6-1.2-.8-.4-.2-.9-.3-1.4-.3-.9 0-1.8.3-2.4 1-.6.7-1 1.7-.9 2.6 0 .9.3 1.8.9 2.5.6.6 1.5 1 2.4.9.7 0 1.4-.1 2-.4v-2c0-.3 0-.6-.1-.9h1.2c0 .2-.1.3-.1.5v2.2c0 .2 0 .4.1.5-1.1.3-2.2.5-3.4.5" fill="#ffffff" data-color="3"/>
        <path d="M208.6 136.7v.4h1.2v-3.6h1c.8.1 1.6-.2 2.3-.6.5-.4.8-1 .8-1.7 0-.6-.2-1.1-.7-1.5-.7-.4-1.4-.5-2.1-.5h-2.5v6.4c.1.5.1.8 0 1.1m1.2-6.9h1c.5 0 1 .1 1.5.4.3.3.5.7.5 1.1 0 .5-.2.9-.6 1.2-.5.3-1 .5-1.6.5h-.8v-3.2z" fill="#ffffff" data-color="3"/>
        <path d="M214.8 136.7c-.1.2-.2.3-.2.4h1c.1-.2.1-.4.2-.6s.2-.4.3-.8.4-1 .7-1.5c.5-.1 1-.1 1.5-.1s1 0 1.5.1l.7 1.5c.1.4.3.6.3.8s.1.4.2.6h1.3l-.7-1.4c-.4-.7-.7-1.6-1.2-2.5-.7-1.6-1.3-2.9-1.7-3.9h-.3c-.4 1.1-1 2.4-1.8 3.9-.4.9-.8 1.7-1.2 2.5l-.6 1m3.3-5.8 1 2.2.1.3c-.4 0-.8.1-1.2.1-.4 0-.8 0-1.2-.1l.1-.3.6-1.2.6-1" fill="#ffffff" data-color="3"/>
        <path d="M223.7 136.7v.4h1.2v-3.8h.4c.4.5.9 1 1.4 1.6l.7.8.7.8c.1.2.3.4.4.6h1.5l-.3-.3c-.2-.2-.5-.5-.9-1.1l-.6-.8c-.6-.7-1-1.2-1.4-1.8.5-.1 1-.2 1.5-.5.6-.3 1-.9 1-1.6 0-.5-.2-1.1-.6-1.4-.6-.4-1.3-.5-2-.5h-2.6v7.4m.7-6.7h1c.5 0 1 .1 1.4.4.3.2.5.6.5 1 0 .5-.2.9-.6 1.1-.5.3-1.1.5-1.7.4h-.6v-2.9z" fill="#ffffff" data-color="3"/>
        <path d="M232.9 135.7v-5.8h-1.8c-.3 0-.5 0-.8.1.1-.3.1-.5 0-.8l1.5.1h3.2c.6 0 1 0 1.4-.1-.1.3-.1.5 0 .8-.3 0-.5-.1-.8-.1H234v7.2h-1.2v-1.4" fill="#ffffff" data-color="3"/>
        <path d="M238.9 135.7c0 .5 0 .8.1 1v.4h-.8v-7.8h.4c1 1.1 2.3 2.4 3.9 4l1.9 1.9v-6h.8v4c0 1.6 0 2.9.1 3.9h-.4c-1-1.1-2.3-2.4-3.9-4l-2-1.9v1.9c-.1 1-.1 1.8-.1 2.6" fill="#ffffff" data-color="3"/>
        <path d="M247.2 137.1v-8l.7.1h2.9c.3 0 .5 0 .7-.1-.1.3-.1.5 0 .8-.2 0-.5-.1-.7-.1h-2.4v2.8h2.2c.3 0 .5 0 .8-.1v.8c-.1 0-.4 0-.8-.1h-2.2v3.2h2.3c.3 0 .6 0 .8-.1v.8c-.2 0-.4-.1-.8-.1H248l-.7.1" fill="#ffffff" data-color="3"/>
        <path d="M253.7 136.7v.4h1.2v-3.8h.4c.4.5.9 1 1.4 1.6l.7.8c.3.4.6.6.7.8.1.2.3.4.4.6h1.6l-.3-.3c-.2-.2-.5-.5-.9-1.1l-.7-.8c-.6-.7-1-1.2-1.4-1.8.5-.1 1-.2 1.5-.5.6-.3 1-.9 1-1.6 0-.5-.2-1.1-.7-1.4-.6-.4-1.3-.5-2-.5H254v6.4c-.2.6-.2 1-.3 1.2m1.1-6.9h1c.5 0 1 .1 1.4.4.3.2.5.6.5 1 0 .5-.2.9-.6 1.1-.5.3-1.1.5-1.7.4h-.6v-2.9z" fill="#ffffff" data-color="3"/>
    </g>
</svg>
