<?xml version="1.0" encoding="UTF-8"?>
<svg data-bbox="21.428 262.569 599.972 118.831" viewBox="0 0 652 652" xmlns="http://www.w3.org/2000/svg" data-type="color">
    <g>
        <path fill-rule="evenodd" clip-rule="evenodd" fill="#005b76" d="M130.5 380.4h20.3l15.8-59.2h-20.2l-15.9 59.2z" data-color="1"/>
        <path fill-rule="evenodd" clip-rule="evenodd" fill="#005b76" d="M234.5 380.4h20.2l15.9-59.2h-20.2l-15.9 59.2z" data-color="1"/>
        <path fill-rule="evenodd" clip-rule="evenodd" fill="#005b76" d="M338.5 380.4h20.2l15.9-59.2h-20.2l-15.9 59.2z" data-color="1"/>
        <path d="M215.7 341.5H236c2.7-13.3-5.9-20.2-25.8-20.2-23 0-38.6 11.2-43.8 30.8-4.7 17.7 4.6 28.5 26.3 28.5 21.8 0 34.8-6.8 40.3-22h-20.3c-2.8 6.7-8.2 10.2-15.3 10.2-9.8 0-13.6-6.2-10.6-17.5 3.1-11.7 10.5-18.2 20.4-18.2 6 0 8.9 2.8 8.5 8.4" fill-rule="evenodd" clip-rule="evenodd" fill="#005b76" data-color="1"/>
        <path d="M319.7 341.5H340c2.7-13.3-5.9-20.2-25.8-20.2-23 0-38.6 11.2-43.8 30.8-4.7 17.7 4.6 28.5 26.3 28.5 21.8 0 34.8-6.8 40.3-22h-20.3c-2.8 6.7-8.2 10.2-15.3 10.2-9.8 0-13.6-6.2-10.6-17.5 3.1-11.7 10.5-18.2 20.4-18.2 6 0 8.9 2.8 8.5 8.4" fill-rule="evenodd" clip-rule="evenodd" fill="#005b76" data-color="1"/>
        <path d="M52.3 288.3c27.1-26.9 59.9-33.8 73-15.5 13.1 18.4 1.6 55.3-25.5 82.1-27.1 26.9-59.9 33.8-73 15.5-13-18.3-1.6-55.2 25.5-82.1" fill="#f99d28" fill-rule="evenodd" clip-rule="evenodd" data-color="2"/>
        <path d="M70.3 274c-2.9 2.2-6 4.8-9 7.7-23.8 23.4-33.6 55.6-21.9 71.7 12.1 16.1 41.3 10.2 65.4-13.5 13-12.6 21.8-27.4 25.4-41.1 1.1-10.1-.4-19-4.9-25.8-10.4-14.3-32.7-13.2-55 1" fill="#af2a30" fill-rule="evenodd" clip-rule="evenodd" data-color="3"/>
        <path d="M83.7 368.3c-12.7 9.5-25.8 14.3-38.6 12.3 5.4.3 9.7-5.7 13.3-13.7 3.6-8.2 5.8-15.8 7.5-22.9 2.5-11.3 2.7-19.3 1.4-21-2.2-2.9-7.1-2.1-12.7 1.1-2.7 1.5-6.2.5-2-4.6 4.3-5.1 21.1-17.5 27.2-19.4 6.7-1.9 14.3.7 11.7 8-1.8 5.2-25.2 66.6-7.8 60.2m19.1-95.1c3.2 3.2 1.2 10.1-4.1 15.5-5.4 5.4-12.5 7.3-15.6 4.2-3.3-3.1-1.3-10.1 4.1-15.6 5.5-5.5 12.6-7.2 15.6-4.1" fill="#ffffff" fill-rule="evenodd" clip-rule="evenodd" data-color="4"/>
        <path d="m405 371.1 4.6-17.3h13.3c10.2 0 14.7 1.8 12.9 8.8-1.7 6.4-6.7 8.5-15.9 8.5H405m10.9-40.7h12.6c9.5 0 13.8 1.1 12.3 7.1-1.6 5.9-6.7 7.4-16.5 7.4H412l3.9-14.5zm-26.2 50.1h30.4c8.6 0 15.1-.7 21.2-4.9 4.1-2.8 7.2-7.1 8.4-11.8 2.2-8.1-1.5-13.6-10.8-14.9 8.8-1.6 14.3-6.2 16.1-13.2 1.5-5.4.3-9.3-3.6-11.9-3.2-2.1-8.5-2.5-15.6-2.5h-30.2l-15.9 59.2z" fill-rule="evenodd" clip-rule="evenodd" fill="#005b76" data-color="1"/>
        <path d="m487.9 361.5-.2.7c-2 7.7-8.2 12.3-15.8 12.3-5.5 0-7.8-2.1-6.8-6.1 1.5-5.4 6.2-6.9 15-6.9h7.8m-4.8 19h12.2c.3-2.8 1-5.8 1.9-9.2l4.4-16.5c2.9-10.9-2.5-16.5-16.2-16.5-13.2 0-21.9 4.6-24.5 12.3h11.7c1.5-3.9 4.9-5.7 10.5-5.7 6.3 0 8.5 2.8 6.9 8.8l-.2.7h-6.4c-18.1 0-27.9 3.3-30.7 13.7-2.2 8.1 2.9 13.3 13.7 13.3 7 0 13.1-2.3 18-6.7l-1.3 5.8z" fill-rule="evenodd" clip-rule="evenodd" fill="#005b76" data-color="1"/>
        <path d="M505.8 380.5h12.3l5.7-21.1c2.1-7.7 9.1-13 16.4-13 7.2 0 9.7 4.2 7.4 12.6l-5.8 21.6h12l6.8-25.3c2.9-10.7-2.6-16.9-14.5-16.9-7.7 0-14 2.6-19.3 8.2l1.5-7.3h-12.1c-1.2 6.5-2.1 10.5-2.5 12.1l-7.9 29.1" fill-rule="evenodd" clip-rule="evenodd" fill="#005b76" data-color="1"/>
        <path fill-rule="evenodd" clip-rule="evenodd" fill="#005b76" d="M564.6 380.5h11.9l6-22.3 16.1 22.3H615l-18.2-23.6 24.6-17.7H606l-22.9 16.7 9.3-34.6h-11.9l-15.9 59.2z" data-color="1"/>
    </g>
</svg>
