<?xml version="1.0" encoding="UTF-8"?>
<svg data-bbox="0.016 -0.039 391.457 84.152" viewBox="0 0 391.4 84.2" height="84.2pt" width="391.4pt" xmlns="http://www.w3.org/2000/svg" data-type="color">
    <g>
        <defs>
            <clipPath id="5e8a3e7d-fe67-42c6-a368-9f7d1ce0504d">
                <path d="M0 0h391.398v84.2H0Zm0 0"/>
            </clipPath>
        </defs>
        <g clip-path="url(#5e8a3e7d-fe67-42c6-a368-9f7d1ce0504d)">
            <path d="M.016 84.113h391.457V-.039H.016Zm0 0" fill-rule="evenodd" fill="#981c1e" data-color="1"/>
        </g>
        <path d="m65.957 49.805-2.066 10.418h-9.04c.688-3.446 1.38-7.145 2.153-10.676.172-.777.344-1.55.516-2.41 0-.606.085-1.207.171-1.805.344-4.223-2.668-4.996-5.593-3.703-1.723.684-2.5 1.89-3.36 3.441-.773 1.375-1.031 2.668-1.379 4.395l-2.238 10.758h-8.953l5.254-25.657 8.262-.257c-.344 1.632-.774 3.183-1.032 4.82 3.36-4.043 7.664-6.113 12.657-4.649 4.992 1.375 6.027 6.372 5.25 11.192-.086 1.465-.258 2.754-.602 4.133Zm0 0" fill-rule="evenodd" fill="#ffffff" data-color="2"/>
        <path d="M229.281 22.941h8.781l-7.835 37.368h-8.094c.344-1.38.691-2.758 1.12-4.133-1.636 1.55-3.015 2.84-4.823 3.703V54.28a7.852 7.852 0 0 0 1.98-.773c2.586-1.637 3.617-4.567 3.617-7.492l-.172-1.465c-.171-1.375-.773-2.582-2.324-3.27-.86-.515-2.066-.515-3.101-.343v-6.63c.52 0 .949.172 1.379.172a8.712 8.712 0 0 1 5.855 4.735ZM218.43 59.88c-.602.344-1.29.516-2.063.687-2.414.602-3.789.774-6.285-.171-2.93-1.036-4.39-3.016-5.512-5.68-2.582-6.547.258-15.844 6.63-19.031 2.066-1.032 4.734-1.633 7.23-1.375v6.629c-.688.085-1.461.343-1.977.69-1.465.942-2.414 2.325-2.93 3.962-.601 1.633-.945 3.957-.43 5.68.173.859.516 1.46 1.032 1.976 1.207 1.035 2.844 1.293 4.305 1.035Zm0 0" fill-rule="evenodd" fill="#ffffff" data-color="2"/>
        <path d="m156.27 34.91-1.805 5.508c-2.5-.688-4.305-1.031-6.89-1.203-.774 0-1.376-.086-1.981.086-1.805.43-2.582 2.066-1.203 3.27 1.722 1.722 4.734 2.156 6.886 3.53.516.344 1.121.864 1.723 1.38 1.723 2.667 1.465 5.507-.344 8.265-2.844 4.219-8.265 4.649-13.172 4.305-2.672-.172-4.91-.692-7.578-1.207l1.637-6.2c3.27.864 5.336 1.637 8.437 1.294 1.375-.086 3.356 0 3.356-1.895-.344-1.379-1.633-2.238-3.012-2.836-2.066-.953-4.304-1.555-5.941-3.191-.946-1.38-1.207-2.41-1.207-4.133 0-1.723.52-2.922 1.293-4.043 4.39-6.29 13.43-4.48 19.8-2.93Zm0 0" fill-rule="evenodd" fill="#ffffff" data-color="2"/>
        <path d="m105.215 34.309 9.129-.172a816.69 816.69 0 0 0-2.067 9.726c-.43 2.153-1.293 4.907-.687 7.059.344 1.207.773 1.637 1.89 1.98 1.293.434 2.93.176 3.961-.601 3.102-2.239 3.961-5.942 4.735-9.555l1.894-8.61h8.871l-5.511 26.087c-2.582.086-5.164-.086-7.836 0 .258-1.465.605-3.618.949-5.082-.95.863-1.723 1.812-2.758 2.586-1.289 1.03-2.84 1.718-4.476 2.152-1.895.43-4.477.43-6.286-.348-1.98-.773-3.441-2.578-4.218-4.562-1.032-2.668-.602-4.477-.172-7.23.691-4.477 1.637-9.036 2.582-13.43Zm0 0" fill-rule="evenodd" fill="#ffffff" data-color="2"/>
        <path d="M95.059 22.941h8.78l-7.92 37.369h-8.094c.344-1.38.778-2.758 1.121-4.133-1.55 1.55-3.015 2.84-4.734 3.703v-5.6a7.969 7.969 0 0 0 1.98-.773c2.496-1.637 3.528-4.567 3.528-7.492l-.086-1.465c-.172-1.375-.86-2.582-2.41-3.27-.86-.515-2.067-.515-3.012-.343v-6.63c.43 0 .86.172 1.375.172 2.41.606 4.562 2.239 5.855 4.735ZM84.21 59.88c-.691.344-1.379.516-2.066.687-2.41.602-3.875.774-6.372-.171-2.843-1.036-4.39-3.016-5.511-5.68-2.496-6.547.343-15.844 6.629-19.031 2.066-1.032 4.82-1.633 7.32-1.375v6.629a5.26 5.26 0 0 0-2.066.69 7.533 7.533 0 0 0-2.93 3.962c-.602 1.633-.945 3.957-.43 5.68.172.859.516 1.46 1.121 1.976 1.203 1.035 2.754 1.293 4.305 1.035Zm0 0" fill-rule="evenodd" fill="#ffffff" data-color="2"/>
        <path d="M29.54 22.941h9.21l-7.66 37.282h-9.3Zm0 0" fill-rule="evenodd" fill="#ffffff" data-color="2"/>
        <path d="m200.352 49.805-2.153 10.418h-9.125a405.043 405.043 0 0 0 2.238-10.676c.172-.777.344-1.55.602-2.324 0-.692 0-1.293.086-1.891.43-4.223-2.754-4.996-5.598-3.703-1.632.77-2.41 1.89-3.27 3.441-.859 1.375-1.116 2.758-1.378 4.395l-2.324 10.758h-8.782l5.079-25.657c2.757-.086 5.511-.086 8.265-.257-.344 1.632-.687 3.183-1.031 4.82 3.36-4.043 7.66-6.113 12.656-4.649 4.992 1.375 6.028 6.372 5.336 11.278-.172 1.379-.344 2.668-.601 4.047Zm0 0" fill-rule="evenodd" fill="#ffffff" data-color="2"/>
        <path d="M163.332 22.941h9.297l-7.664 37.282h-9.297Zm0 0" fill-rule="evenodd" fill="#ffffff" data-color="2"/>
        <path d="m335.691 50.063-2.152 10.503h-9.125c.688-3.53 1.55-7.32 2.238-10.761.172-.864.344-1.637.516-2.496 0-.602.086-1.207.176-1.805.344-4.223-2.758-5-5.684-3.707-1.637.687-2.41 1.894-3.36 3.445-.773 1.375-1.03 2.668-1.374 4.39l-2.238 10.848h-8.958l5.168-25.828c2.754-.086 5.594-.172 8.352-.257-.348 1.632-.691 3.27-1.035 4.82 3.273-4.047 7.75-6.113 12.656-4.735 5.168 1.461 6.113 6.543 5.426 11.364-.086 1.465-.344 2.754-.606 4.218Zm0 0" fill-rule="evenodd" fill="#ffffff" data-color="2"/>
        <path d="M346.023 22.941h9.043l-4.652 22.215 9.129-10.676h10.156l-10.676 11.793 6.72 14.122h-9.645l-5.942-13.688-2.84 13.688h-8.867Zm0 0" fill-rule="evenodd" fill="#ffffff" data-color="2"/>
        <path d="M304.098 46.707c-.778 3.7-1.551 7.316-2.239 10.93l-.347 2.93h-7.489l.516-3.962c-1.289 1.293-2.668 2.41-4.133 3.188v-4.477c.086-.09.258-.09.43-.175.95-.512 1.637-.86 2.152-1.375 1.207-1.293 1.809-3.274 2.328-4.91h-1.293c-1.117 0-2.41-.086-3.617 0V44.55c1.809-.172 3.875-.086 5.942-.086 0-2.238-.86-3.961-3.188-4.477-1.031-.172-1.976-.172-2.754-.172V34.48c5.598-.69 11.54.258 13.606 5.336 1.031 2.582.43 4.22.086 6.891Zm-13.692 13.082c-1.375.691-2.926 1.121-4.39 1.297-3.356.34-6.887-1.207-8.352-4.309-1.031-1.722-.773-3.617-.344-5.597.43-1.89 1.293-2.926 3.532-4.473 3.183-1.55 6.285-2.07 9.554-2.156v4.304c-1.289.086-2.582.434-3.441 1.036-1.723 1.289-2.414 3.703-.52 5.164 1.121.78 2.672.691 3.961.261Zm0-19.973c-1.203 0-2.238.086-3.613.43-1.55.348-2.672.863-4.133 1.55l1.031-6.026c2.067-.516 4.305-1.032 6.715-1.29Zm0 0" fill-rule="evenodd" fill="#ffffff" data-color="2"/>
        <path d="M259.93 25.96h4.734c4.133 0 10.504.599 11.711 5.419.258.777.344 1.55.344 2.328v.082c0 2.844-1.38 5.34-3.961 7.063-1.809.863-3.36 1.289-5.164 1.808 4.648.774 7.66 3.957 6.715 9.043-1.38 7.055-8.008 8.176-14.38 8.606v-6.2c.344 0 .688-.086.946-.172 5.34-.859 6.543-7.058 1.465-8.18-.774-.167-1.55-.253-2.41-.167v-5.512c1.035 0 2.152-.09 3.097-.262 2.844-.687 6.63-3.613 3.532-6.886-1.29-1.38-4.391-1.207-6.63-1.035Zm-8.61 0h8.61v5.935h-.774l-1.808 8.093c.773 0 1.722.09 2.582.09v5.512c-1.207 0-2.496.168-3.703.254l-1.809 8.613c1.55-.09 3.617-.09 5.512-.348v6.2c-.516.086-1.121.086-1.637.171h-13.945Zm0 0" fill-rule="evenodd" fill="#ffffff" data-color="2"/>
    </g>
</svg>
