<?xml version="1.0" encoding="UTF-8"?>
<svg data-bbox="6.371 21.562 62.508 16.403" viewBox="0 0 75 59" height="59pt" width="100" xmlns="http://www.w3.org/2000/svg" data-type="color">
    <g>
        <path d="M15.906 37.965c-5.254 0-9.535-3.684-9.535-8.203 0-4.516 4.281-8.2 9.535-8.2 5.25 0 9.531 3.684 9.531 8.2 0 4.52-4.28 8.203-9.53 8.203" fill-rule="evenodd" fill="#004a8f" data-color="1"/>
        <path d="m22.023 30.594 1.063.047c-.633 4.418-4.824 4.742-6.938.46l.278-.46c2.187 1.386 4.746 1.91 5.597-.047" fill-rule="evenodd" fill="#ffffff" data-color="2"/>
        <path d="m14.809 24.164 2.125-.695.093 12.027-2.312.785.094-12.117" fill-rule="evenodd" fill="#ed1c24" data-color="3"/>
        <path d="M22.07 28.973h.97c-.376-2.02-1.4-3.293-3.376-3.47-1.648.032-3.055.99-4.21 2.868-.763 1.16-1.985 2.98-3.47 3.195-1.789.258-2.828-1.316-2.054-2.671.468-.829 1.738-1.172 2.625-1.09.004 0 .011.004.015.004.813.082 1.563.289 2.203.68l.012-1.704c-.402-.344-.73-.687-1.203-.922-.64-.32-1.266-.422-1.875-.312-2.695.594-3.191 2.797-2.68 5.734 1.047 3.41 4.317 3.672 6.196 1.48 1.289-1.538 4.488-6.745 6.847-3.792" fill-rule="evenodd" fill="#ffffff" data-color="2"/>
        <path d="M36.473 31.887c1.672 0 2.992-.969 2.992-2.64 0-1.673-1.32-2.731-2.992-2.731-1.676 0-2.996 1.058-2.996 2.73s1.32 2.64 2.996 2.64Zm0-1.23c-.793 0-1.145-.708-1.145-1.41 0-.794.352-1.5 1.145-1.5s1.144.706 1.144 1.5c0 .702-.351 1.41-1.144 1.41Zm2.816-2.731h.969v2.023c0 1.235.441 1.938 2.027 1.938.438 0 .703-.09 1.055-.09l-.086-1.14c-.176 0-.356.085-.531.085-.528 0-.703-.351-.703-.969v-1.847h1.234V26.69H42.02v-1.76l-1.672.617v1.144h-1.059Zm10.125 3.87h1.762v-2.55h.09l1.41 2.55h2.113l-1.937-2.816 1.761-2.289h-1.937l-1.41 2.114h-.09V24.93l-1.762.617Zm-20.605 0h1.761v-2.55l1.41 2.55h2.114l-1.848-2.816 1.762-2.289H32.07l-1.5 2.114V24.93l-1.761.53Zm19.992 0c-.09-.437-.09-.788-.09-1.23V28.63c0-1.586-1.145-2.113-2.465-2.113-.703 0-1.406.086-2.027.351v1.235c.531-.266 1.058-.356 1.676-.356.617 0 1.144.18 1.144.883-.176-.09-.527-.09-.793-.09-.969 0-2.73.18-2.73 1.762 0 1.148.968 1.586 1.937 1.586.793 0 1.234-.266 1.676-.88 0 .263.086.528.086.79Zm-3.61-1.667c0-.442.528-.617 1.145-.617h.703c0 .617-.441 1.23-1.055 1.23-.441 0-.793-.262-.793-.613" fill-rule="evenodd" fill="#ed1c24" data-color="3"/>
        <path d="M55.367 25.195c.137 0 .274.035.406.106.133.07.235.172.309.304a.846.846 0 0 1 0 .829.717.717 0 0 1-.305.304.832.832 0 0 1-.824 0 .739.739 0 0 1-.305-.304.833.833 0 0 1-.113-.41.85.85 0 0 1 .113-.419.772.772 0 0 1 .309-.304.866.866 0 0 1 .41-.106Zm0 .137a.671.671 0 0 0-.34.09.6.6 0 0 0-.257.254.694.694 0 0 0-.004.687.68.68 0 0 0 .601.348.67.67 0 0 0 .598-.348.671.671 0 0 0 .09-.34.732.732 0 0 0-.09-.347.63.63 0 0 0-.262-.254.668.668 0 0 0-.336-.09Zm-.363 1.145v-.887h.305c.105 0 .18.008.226.023a.227.227 0 0 1 .113.086.244.244 0 0 1 .043.133.234.234 0 0 1-.07.168.297.297 0 0 1-.187.082.22.22 0 0 1 .078.047c.035.035.078.094.129.176l.109.172h-.172l-.082-.137a.653.653 0 0 0-.152-.207c-.024-.024-.063-.031-.114-.031h-.085v.375Zm.14-.5h.176c.086 0 .14-.012.172-.036a.12.12 0 0 0 .043-.097c0-.028-.004-.051-.02-.07a.108.108 0 0 0-.062-.047.417.417 0 0 0-.144-.016h-.164v.266" fill-rule="evenodd" fill="#004a8f" data-color="1"/>
        <path d="M31.023 36.574h-.476l-1.192-1.394c-.043-.047-.066-.082-.082-.102h-.007v1.496h-.336v-3.043h.336v1.43h.007c.02-.027.047-.063.082-.102l1.157-1.328h.418l-1.32 1.461Zm.157-1.058c0-.36.101-.645.297-.856.195-.207.464-.308.804-.308.32 0 .57.097.75.3.184.2.274.477.274.832 0 .344-.098.618-.293.828-.2.211-.457.313-.782.313-.312 0-.566-.098-.761-.3-.192-.204-.29-.473-.29-.81Zm.336-.012c0 .254.066.46.199.613.137.153.316.23.539.23.226 0 .402-.074.531-.222.121-.152.188-.36.188-.629 0-.277-.063-.492-.188-.64-.125-.153-.3-.227-.531-.227a.67.67 0 0 0-.54.234c-.132.157-.198.367-.198.64Zm3.34 1.05a.657.657 0 0 1-.317.067c-.371 0-.559-.207-.559-.629v-1.308h-.378v-.282h.378v-.535l.325-.105v.64h.55v.282h-.55v1.25c0 .148.027.254.074.316.05.063.137.094.25.094.09 0 .168-.024.226-.074Zm.523-2a1.33 1.33 0 0 1 .734-.202c.504 0 .754.265.754.804v1.418h-.328v-.34h-.012a.72.72 0 0 1-.668.391c-.214 0-.382-.055-.507-.172a.58.58 0 0 1-.184-.453c0-.402.238-.637.715-.707l.656-.094c0-.375-.152-.566-.453-.566-.262 0-.5.09-.707.27Zm.629.989c-.188.027-.317.07-.39.137-.075.062-.11.164-.11.297 0 .109.039.199.117.265.078.07.18.102.305.102.175 0 .32-.063.437-.184a.673.673 0 0 0 .172-.469v-.218Zm3.304 1.031h-.464l-.98-1.039h-.009v1.04h-.328v-3.216h.328v2.04h.008l.93-.997h.433l-1.02 1.051Zm4.16 0V34.52c0-.157.012-.352.032-.59h-.008c-.039.144-.07.242-.094.289l-1.058 2.355h-.149l-1.062-2.34a1.744 1.744 0 0 1-.086-.304h-.012c.012.11.02.304.02.586v2.058h-.328v-3.043h.437l.953 2.145c.074.168.121.289.14.36h.016c.04-.106.086-.231.145-.372l.977-2.133h.41v3.043Zm1.145-2.02a1.33 1.33 0 0 1 .735-.202c.503 0 .753.265.753.804v1.418h-.328v-.34h-.011a.72.72 0 0 1-.668.391c-.215 0-.383-.055-.508-.172a.58.58 0 0 1-.184-.453c0-.402.239-.637.715-.707l.656-.094c0-.375-.152-.566-.453-.566-.261 0-.5.09-.707.27Zm.625.989c-.183.027-.312.07-.387.137-.074.062-.109.164-.109.297 0 .109.04.199.117.265.078.07.18.102.305.102a.57.57 0 0 0 .434-.184.659.659 0 0 0 .175-.469v-.218Zm3.313 1.031h-.325V35.32c0-.46-.171-.691-.515-.691a.557.557 0 0 0-.442.203.747.747 0 0 0-.175.512v1.23h-.328V33.36h.328v1.407h.007a.793.793 0 0 1 .72-.414c.487 0 .73.293.73.886Zm.62-2.953c0-.062.024-.117.063-.156a.21.21 0 0 1 .153-.067.22.22 0 0 1 .156.067.209.209 0 0 1 .062.156.219.219 0 0 1-.219.215.195.195 0 0 1-.152-.063.223.223 0 0 1-.062-.152Zm.048 2.953v-2.172h.324v2.172Zm2.828 0h-.328v-1.242c0-.469-.172-.703-.516-.703a.546.546 0 0 0-.441.203.731.731 0 0 0-.172.504v1.238h-.328v-2.172h.328v.364h.008a.782.782 0 0 1 .714-.414c.239 0 .418.074.547.23.125.152.188.375.188.664Zm2.5 0h-.328v-.37h-.008c-.16.28-.41.421-.75.421a.814.814 0 0 1-.656-.293c-.16-.195-.243-.46-.243-.793 0-.355.09-.644.274-.863a.895.895 0 0 1 .719-.324c.3 0 .52.117.656.355h.008v-1.348h.328Zm-.328-1.308a.613.613 0 0 0-.18-.45.596.596 0 0 0-.445-.187.612.612 0 0 0-.512.242c-.125.16-.188.375-.188.652 0 .25.063.45.18.598a.57.57 0 0 0 .477.227.62.62 0 0 0 .48-.211.781.781 0 0 0 .188-.54Zm2.156-.528c-.059-.047-.145-.07-.258-.07-.156 0-.281.074-.379.219-.101.148-.148.34-.148.578v1.11h-.328v-2.173h.328v.45h.008a.737.737 0 0 1 .23-.36.503.503 0 0 1 .336-.129.57.57 0 0 1 .21.032Zm.434-.183a1.33 1.33 0 0 1 .734-.203c.504 0 .754.265.754.804v1.418h-.328v-.34h-.012a.72.72 0 0 1-.668.391c-.215 0-.383-.055-.508-.172a.58.58 0 0 1-.183-.453c0-.402.238-.637.714-.707l.657-.094c0-.375-.153-.566-.453-.566-.262 0-.497.09-.708.27Zm.628.988c-.187.027-.316.07-.39.137-.07.062-.11.164-.11.297 0 .109.04.199.118.265a.44.44 0 0 0 .308.102.581.581 0 0 0 .434-.184.673.673 0 0 0 .172-.469v-.218Zm2.579 1.031v-3.043h.851c.25 0 .457.063.61.192a.612.612 0 0 1 .234.504c0 .171-.047.32-.137.449a.812.812 0 0 1-.387.277v.008c.204.02.364.094.489.227a.722.722 0 0 1 .187.515.798.798 0 0 1-.277.629c-.188.16-.422.242-.703.242Zm.332-2.734v1.004h.37c.2 0 .36-.051.473-.145a.508.508 0 0 0 .168-.406c0-.3-.195-.453-.59-.453Zm0 1.312v1.114h.496c.207 0 .37-.051.492-.153a.512.512 0 0 0 .176-.414c0-.367-.25-.547-.75-.547Zm2.144-.597c.215-.137.457-.203.73-.203.508 0 .758.265.758.804v1.418h-.328v-.34h-.011a.72.72 0 0 1-.668.391c-.215 0-.383-.055-.508-.172A.584.584 0 0 1 62.28 36c0-.402.242-.637.719-.707l.656-.094c0-.375-.152-.566-.453-.566-.262 0-.5.09-.707.27Zm.625.988c-.184.027-.312.07-.387.137-.074.062-.109.164-.109.297 0 .109.04.199.117.265.078.07.18.102.305.102a.57.57 0 0 0 .433-.184.659.659 0 0 0 .176-.469v-.218Zm3.313 1.031h-.329v-1.242c0-.469-.171-.703-.511-.703a.554.554 0 0 0-.446.203.75.75 0 0 0-.171.504v1.238h-.329v-2.172h.329v.364h.007a.782.782 0 0 1 .715-.414c.239 0 .422.074.547.23.125.152.188.375.188.664Zm2.445 0h-.469l-.976-1.039h-.008v1.04h-.328v-3.216h.328v2.04h.008l.93-.997h.433l-1.024 1.051 1.106 1.121" fill="#003974" data-color="4"/>
    </g>
</svg>
